<svg width="20" height="20" viewBox="0 0 20 20" fill="none" xmlns="http://www.w3.org/2000/svg">
<path d="M0.25 10C0.25 15.3845 4.61547 19.75 10 19.75C15.3845 19.75 19.75 15.3845 19.75 10C19.75 4.61547 15.3845 0.25 10 0.25C4.61547 0.25 0.25 4.61547 0.25 10ZM10.218 5.7175C10.2879 5.78687 10.3435 5.86934 10.3816 5.96019C10.4196 6.05105 10.4394 6.14851 10.4398 6.24702C10.4402 6.34552 10.4212 6.44314 10.3838 6.5343C10.3465 6.62545 10.2916 6.70836 10.2222 6.77828L7.76969 9.25H14.0312C14.2302 9.25 14.4209 9.32902 14.5616 9.46967C14.7022 9.61032 14.7812 9.80109 14.7812 10C14.7812 10.1989 14.7022 10.3897 14.5616 10.5303C14.4209 10.671 14.2302 10.75 14.0312 10.75H7.76969L10.2222 13.2217C10.2916 13.2917 10.3465 13.3747 10.3838 13.4659C10.4211 13.5571 10.4401 13.6548 10.4396 13.7533C10.4392 13.8519 10.4194 13.9494 10.3812 14.0402C10.3431 14.1311 10.2875 14.2136 10.2175 14.283C10.1475 14.3523 10.0645 14.4073 9.97333 14.4446C9.88212 14.4819 9.78445 14.5009 9.6859 14.5004C9.58736 14.5 9.48986 14.4801 9.39898 14.442C9.30811 14.4039 9.22563 14.3483 9.15625 14.2783L5.43484 10.5283C5.29544 10.3878 5.21722 10.1979 5.21722 10C5.21722 9.80209 5.29544 9.6122 5.43484 9.47172L9.15625 5.72172C9.22564 5.65164 9.30816 5.59593 9.3991 5.55778C9.49004 5.51964 9.58762 5.4998 9.68623 5.49941C9.78485 5.49902 9.88258 5.51808 9.97382 5.5555C10.0651 5.59292 10.148 5.64797 10.218 5.7175Z" fill="black"/>
</svg>
