<svg width="30" height="30" viewBox="0 0 30 30" fill="none" xmlns="http://www.w3.org/2000/svg">
<path d="M15 0C6.69321 0 0 6.69321 0 15C0 23.3068 6.69321 30 15 30C23.3068 30 30 23.3068 30 15C30 13.3864 29.7837 11.7773 29.2067 10.2764L27.3317 12.1154C27.5616 13.0394 27.6923 13.9633 27.6923 15C27.6923 22.0403 22.0403 27.6923 15 27.6923C7.95974 27.6923 2.30769 22.0403 2.30769 15C2.30769 7.95974 7.95974 2.30769 15 2.30769C18.4615 2.30769 21.5715 3.6869 23.762 5.8774L25.3846 4.25481C22.7299 1.60006 19.0385 0 15 0ZM28.0168 4.9399L15 17.9567L10.0601 13.0168L8.40144 14.6755L14.1707 20.4447L15 21.238L15.8293 20.4447L29.6755 6.59856L28.0168 4.9399Z" fill="white"/>
</svg>
