<svg width="20" height="12" viewBox="0 0 20 12" fill="none" xmlns="http://www.w3.org/2000/svg">
<path d="M0.453828 0.939546C0.73512 0.65834 1.11658 0.500366 1.51433 0.500366C1.91207 0.500366 2.29354 0.65834 2.57483 0.939546L9.99983 8.36455L17.4248 0.939546C17.7077 0.666309 18.0866 0.515117 18.4799 0.518534C18.8732 0.521952 19.2494 0.679706 19.5276 0.957818C19.8057 1.23593 19.9634 1.61215 19.9668 2.00544C19.9703 2.39874 19.8191 2.77764 19.5458 3.06055L11.0603 11.546C10.779 11.8273 10.3976 11.9852 9.99983 11.9852C9.60208 11.9852 9.22062 11.8273 8.93933 11.546L0.453828 3.06055C0.172622 2.77925 0.0146484 2.39779 0.0146484 2.00005C0.0146484 1.6023 0.172622 1.22084 0.453828 0.939546Z" fill="#0D2341"/>
</svg>
